HIERARCHY
ROOT joint_Root
{
	OFFSET 0.0 0.0 0.0
	CHANNELS 6 Xposition Yposition Zposition Zrotation Xrotation Yrotation 
	JOINT Hips
	{
		OFFSET 4.5925 91.4895 -427.239
		CHANNELS 6 Xposition Yposition Zposition Zrotation Xrotation Yrotation 
		JOINT Spine
		{
			OFFSET 15.7357 0.0 0.0
			CHANNELS 6 Xposition Yposition Zposition Zrotation Xrotation Yrotation 
			JOINT Chest
			{
				OFFSET 8.98455 -0.406207 0.0
				CHANNELS 6 Xposition Yposition Zposition Zrotation Xrotation Yrotation 
				JOINT Neck
				{
					OFFSET 16.3773 0.0 0.0
					CHANNELS 6 Xposition Yposition Zposition Zrotation Xrotation Yrotation 
					JOINT Head
					{
						OFFSET 6.45672 0.0 0.0
						CHANNELS 6 Xposition Yposition Zposition Zrotation Xrotation Yrotation 
						End Site
						{
							OFFSET 0.0 0.0 0.0
						}
					}
				}
				JOINT Shoulder_L
				{
					OFFSET 12.9942 -0.242716 4.98039
					CHANNELS 6 Xposition Yposition Zposition Zrotation Xrotation Yrotation 
					JOINT UpperArm_L
					{
						OFFSET 5.34809 0.0 0.0
						CHANNELS 6 Xposition Yposition Zposition Zrotation Xrotation Yrotation 
						JOINT LowerArm_L
						{
							OFFSET 24.3286 1.87007e-05 0.0
							CHANNELS 6 Xposition Yposition Zposition Zrotation Xrotation Yrotation 
							JOINT Hand_L
							{
								OFFSET 22.2916 0.0 0.0
								CHANNELS 6 Xposition Yposition Zposition Zrotation Xrotation Yrotation 
								End Site
								{
									OFFSET 0.0 0.0 0.0
								}
							}
						}
					}
				}
				JOINT Shoulder_R
				{
					OFFSET 12.9945 -0.242716 -4.98039
					CHANNELS 6 Xposition Yposition Zposition Zrotation Xrotation Yrotation 
					JOINT UpperArm_R
					{
						OFFSET -5.34813 0.0 0.0
						CHANNELS 6 Xposition Yposition Zposition Zrotation Xrotation Yrotation 
						JOINT LowerArm_R
						{
							OFFSET -24.3289 0.000322201 0.0
							CHANNELS 6 Xposition Yposition Zposition Zrotation Xrotation Yrotation 
							JOINT Hand_R
							{
								OFFSET -22.2915 -0.000108084 0.0
								CHANNELS 6 Xposition Yposition Zposition Zrotation Xrotation Yrotation 
								End Site
								{
									OFFSET 0.0 0.0 0.0
								}
							}
						}
					}
				}
			}
		}
		JOINT UpperLeg_L
		{
			OFFSET -2.19248 -6.46944 0.0
			CHANNELS 6 Xposition Yposition Zposition Zrotation Xrotation Yrotation 
			JOINT LowerLeg_L
			{
				OFFSET 39.0811 0.0 -1.23785e-05
				CHANNELS 6 Xposition Yposition Zposition Zrotation Xrotation Yrotation 
				JOINT Foot_L
				{
					OFFSET 40.9854 0.0 -1.26872e-05
					CHANNELS 6 Xposition Yposition Zposition Zrotation Xrotation Yrotation 
					JOINT Toes_L
					{
						OFFSET 11.7543 0.0 0.0
						CHANNELS 6 Xposition Yposition Zposition Zrotation Xrotation Yrotation 
						End Site
						{
							OFFSET 0.0 0.0 0.0
						}
					}
				}
			}
		}
		JOINT UpperLeg_R
		{
			OFFSET -2.19251 6.46944 0.0
			CHANNELS 6 Xposition Yposition Zposition Zrotation Xrotation Yrotation 
			JOINT LowerLeg_R
			{
				OFFSET -39.0811 -0.00228153 -0.0401928
				CHANNELS 6 Xposition Yposition Zposition Zrotation Xrotation Yrotation 
				JOINT Foot_R
				{
					OFFSET -40.9854 0.0 0.0
					CHANNELS 6 Xposition Yposition Zposition Zrotation Xrotation Yrotation 
					JOINT Toes_R
					{
						OFFSET -11.7543 0.0 0.0
						CHANNELS 6 Xposition Yposition Zposition Zrotation Xrotation Yrotation 
						End Site
						{
							OFFSET 0.0 0.0 0.0
						}
					}
				}
			}
		}
	}
}
MOTION
Frames:	5
Frame Time:	0.0333333
0.000000 0.000000 0.000000 0.000000 0.000000 -0.000000 -2.575730 84.015400 -1.418960 86.571000 -3.090720 9.614590 15.735700 0.000005 -0.000001 86.092000 81.338900 -85.408500 8.984550 -0.406207 -0.000000 9.524700 -1.163290 1.462810 16.377300 -0.000001 -0.000001 -1.796310 -0.877644 0.667416 6.456720 -0.000001 -0.000000 -2.414060 1.697460 -2.098900 12.994200 -0.242716 4.980390 -91.549600 4.966660 -72.648100 5.348090 -0.000007 -0.000001 -66.200700 25.475600 -7.631020 24.328600 0.000019 0.000005 12.656500 20.407300 -32.782000 22.291600 -0.000001 0.000005 15.113600 5.229050 1.976720 12.994500 -0.242716 -4.980390 88.065700 9.923170 -78.911400 -5.348130 -0.000001 -0.000004 -57.180500 20.136100 -10.510900 -24.328900 0.000322 -0.000009 2.052360 2.618030 -38.128200 -22.291500 -0.000108 -0.000004 12.630000 5.397270 -2.846670 -2.192480 -6.469440 -0.000000 -168.513000 -15.615700 -13.782100 39.081100 -0.000007 -0.000012 -0.218248 0.138663 57.571300 40.985400 -0.000006 -0.000013 2.763950 11.691700 -83.441800 11.754300 -0.000000 0.000003 -0.000099 -0.001021 -16.616700 -2.192510 6.469440 -0.000001 -179.478000 14.025500 167.129000 -39.081100 -0.002282 -0.040193 0.054763 -0.034725 56.030500 -40.985400 0.000008 0.000006 10.023700 7.881240 -84.227600 -11.754300 -0.000006 -0.000006 -0.903644 -1.129220 -16.294000
0.000000 0.000000 0.000000 0.000000 0.000000 -0.000000 -2.739810 85.935100 -0.540773 86.156400 -1.160080 9.392590 15.735700 0.000005 -0.000001 84.664600 82.335600 -84.753600 8.984550 -0.406207 -0.000000 7.496920 -1.419670 -0.084728 16.377300 -0.000001 -0.000001 -0.118182 -0.846104 0.726163 6.456720 -0.000001 -0.000000 -0.774866 1.297140 -0.093811 12.994200 -0.242716 4.980390 -91.651300 4.990730 -71.666100 5.348090 -0.000007 -0.000001 -67.770000 22.153500 -5.512140 24.328600 0.000019 0.000005 10.501100 18.300600 -30.553000 22.291600 -0.000001 0.000005 15.680800 5.143120 4.107760 12.994500 -0.242716 -4.980390 88.071800 9.028450 -77.891400 -5.348130 -0.000001 -0.000004 -54.541300 15.172500 -10.646700 -24.328900 0.000322 -0.000009 2.047160 2.333420 -41.304000 -22.291500 -0.000108 -0.000004 9.567940 5.394880 -2.771850 -2.192480 -6.469440 -0.000000 -168.338000 -14.178000 -10.855200 39.081100 -0.000007 -0.000012 -0.220208 0.174928 51.538000 40.985400 -0.000006 -0.000013 2.290800 12.185000 -80.845100 11.754300 -0.000000 0.000003 -0.000067 -0.000731 -16.605800 -2.192510 6.469440 -0.000001 -179.259000 15.268600 170.787000 -39.081100 -0.002282 -0.040193 0.051023 -0.040568 49.663600 -40.985400 0.000008 0.000006 9.339920 7.952390 -81.190800 -11.754300 -0.000006 -0.000006 -1.173700 -1.471730 -16.610300
0.000000 0.000000 0.000000 0.000000 0.000000 -0.000000 -2.667230 88.434900 0.207956 86.213600 0.662178 8.169020 15.735700 0.000005 -0.000001 82.368800 83.691500 -83.498900 8.984550 -0.406207 -0.000000 4.725660 -1.642430 -2.190040 16.377300 -0.000001 -0.000001 1.957430 -0.803523 0.833127 6.456720 -0.000001 -0.000000 0.544640 0.948891 1.945120 12.994200 -0.242716 4.980390 -91.564100 4.414310 -70.466500 5.348090 -0.000007 -0.000001 -68.781500 19.934500 -3.032100 24.328600 0.000019 0.000005 8.107780 14.923900 -28.949700 22.291600 -0.000001 0.000005 14.010200 5.160040 3.698300 12.994500 -0.242716 -4.980390 88.317900 7.148500 -76.721000 -5.348130 -0.000001 -0.000004 -48.301300 8.428650 -13.635100 -24.328900 0.000322 -0.000009 1.302020 1.217550 -46.952600 -22.291500 -0.000108 -0.000004 9.275670 5.395450 -2.789260 -2.192480 -6.469440 -0.000000 -169.248000 -12.343700 -7.593600 39.081100 -0.000007 -0.000012 -0.147835 0.161561 42.460400 40.985400 -0.000006 -0.000013 1.370550 12.059400 -76.572000 11.754300 -0.000000 0.000003 -0.000058 -0.000640 -16.602300 -2.192510 6.469440 -0.000001 -178.997000 15.338600 174.359000 -39.081100 -0.002282 -0.040193 0.040087 -0.042782 40.709100 -40.985400 0.000008 0.000006 8.283480 7.296110 -76.091900 -11.754300 -0.000006 -0.000006 -1.274350 -1.571240 -17.493100
0.000000 0.000000 0.000000 0.000000 0.000000 -0.000000 -2.251950 90.534800 0.614237 86.772500 1.565300 6.098330 15.735700 0.000005 -0.000001 79.912400 85.163200 -82.083900 8.984550 -0.406207 -0.000000 1.732520 -1.579130 -4.315190 16.377300 -0.000001 -0.000001 3.689550 -0.380541 0.540918 6.456720 -0.000001 -0.000000 1.568870 0.883148 2.877230 12.994200 -0.242716 4.980390 -91.444100 3.780220 -69.074600 5.348090 -0.000007 -0.000001 -68.939900 17.742800 -0.438589 24.328600 0.000019 0.000005 8.918800 16.034100 -29.602900 22.291600 -0.000001 0.000005 10.331100 5.210490 2.452340 12.994500 -0.242716 -4.980390 88.794300 4.918860 -76.209000 -5.348130 -0.000001 -0.000004 -39.975600 -4.042180 -19.517300 -24.328900 0.000322 -0.000009 -0.203448 -0.150713 -53.104600 -22.291500 -0.000108 -0.000004 12.724200 5.411150 -3.296440 -2.192480 -6.469440 -0.000000 -170.950000 -11.329600 -4.944240 39.081100 -0.000007 -0.000012 -0.097568 0.150223 33.003700 40.985400 -0.000006 -0.000013 0.588160 11.330100 -71.986700 11.754300 -0.000000 0.000003 -0.000032 -0.000385 -16.592600 -2.192510 6.469440 -0.000001 -179.595000 16.850600 176.151000 -39.081100 -0.002282 -0.040193 0.027596 -0.037482 32.955700 -40.985400 0.000008 0.000006 7.836660 8.846280 -70.384200 -11.754300 -0.000006 -0.000006 -1.665190 -1.996570 -18.933100
0.000000 0.000000 0.000000 0.000000 0.000000 -0.000000 -1.579680 91.694100 0.639778 86.867500 1.372160 4.194360 15.735700 0.000005 -0.000001 81.029900 86.266300 -83.627500 8.984550 -0.406207 -0.000000 -0.406671 -0.978935 -5.195890 16.377300 -0.000001 -0.000001 4.257650 0.239537 -0.481889 6.456720 -0.000001 -0.000000 1.770660 1.187080 2.656750 12.994200 -0.242716 4.980390 -91.624600 4.000070 -67.874900 5.348090 -0.000007 -0.000001 -68.068900 16.245300 1.860630 24.328600 0.000019 0.000005 10.487200 17.635900 -31.424000 22.291600 -0.000001 0.000005 7.605220 5.231630 1.912740 12.994500 -0.242716 -4.980390 89.506300 2.124950 -76.922400 -5.348130 -0.000001 -0.000004 -31.075100 -21.958700 -27.452800 -24.328900 0.000322 -0.000009 -5.242450 -3.594200 -55.652200 -22.291500 -0.000108 -0.000004 20.411300 5.448070 -4.550490 -2.192480 -6.469440 -0.000000 -171.871000 -12.687500 -3.709390 39.081100 -0.000007 -0.000012 -0.092935 0.183915 26.808300 40.985400 -0.000006 -0.000013 0.676280 11.746600 -68.937300 11.754300 -0.000000 0.000003 -0.000038 -0.000441 -16.594800 -2.192510 6.469440 -0.000001 179.783000 19.268000 176.595000 -39.081100 -0.002282 -0.040193 0.021007 -0.033108 28.131500 -40.985400 0.000008 0.000006 6.594710 12.126700 -67.139100 -11.754300 -0.000006 -0.000006 -0.368583 -0.464605 -18.606500
